<svg xmlns="http://www.w3.org/2000/svg" viewBox="0 0 1600 300" preserveAspectRatio="none" aria-hidden="true">
  <defs>
    <linearGradient id="fade" x1="0" y1="0" x2="0" y2="1">
      <stop offset="0" stop-color="#d8c3b8" stop-opacity=".35"/>
      <stop offset="1" stop-color="#d8c3b8" stop-opacity="0"/>
    </linearGradient>
    <linearGradient id="route" x1="1" y1="0" x2="0" y2="1">
      <stop offset="0" stop-color="#c8102e" stop-opacity=".65"/>
      <stop offset="1" stop-color="#c8102e" stop-opacity=".08"/>
    </linearGradient>
  </defs>
  <path d="M0 0h1600v300H0z" fill="url(#fade)" opacity=".3"/>
  <g fill="none" stroke="#ac8e82" stroke-width="1" opacity=".27">
    <path d="M-130 278C145 239 244 107 488 114c207 6 270 148 513 109 194-31 236-179 729-216"/>
    <path d="M-122 251C139 210 245 78 492 87c219 8 283 149 507 111 187-31 249-179 735-212"/>
    <path d="M-114 224C134 181 249 49 496 60c232 11 295 149 501 113 179-31 263-178 742-208"/>
    <path d="M-105 197C128 151 254 21 500 34c244 12 309 150 495 115 173-32 276-179 747-204"/>
    <path d="M-96 170C122 123 259-7 504 8c255 15 324 149 489 117 166-32 289-177 752-200"/>
    <path d="M-85 143C116 94 265-33 509-18c267 17 337 149 482 119 160-33 304-177 757-196"/>
  </g>
  <path d="M1690-18c-223 42-279 171-469 171-156 0-229-74-381-54-112 15-184 84-282 111" fill="none" stroke="url(#route)" stroke-width="2"/>
  <g fill="#c8102e">
    <circle cx="1221" cy="153" r="4" opacity=".54"/>
    <circle cx="840" cy="99" r="3" opacity=".42"/>
    <circle cx="558" cy="210" r="3" opacity=".3"/>
  </g>
</svg>
